<svg xmlns="http://www.w3.org/2000/svg" xmlns:xlink="http://www.w3.org/1999/xlink" width="500" zoomAndPan="magnify" viewBox="0 0 375 374.999991" height="500" preserveAspectRatio="xMidYMid meet" version="1.0"><defs><g/><clipPath id="8357cd6686"><path d="M 187.5 0 C 83.945312 0 0 83.945312 0 187.5 C 0 291.054688 83.945312 375 187.5 375 C 291.054688 375 375 291.054688 375 187.5 C 375 83.945312 291.054688 0 187.5 0 Z M 187.5 0 " clip-rule="nonzero"/></clipPath><clipPath id="0a47682c09"><path d="M 0 0 L 375 0 L 375 375 L 0 375 Z M 0 0 " clip-rule="nonzero"/></clipPath><clipPath id="aa9026eb29"><path d="M 187.5 0 C 83.945312 0 0 83.945312 0 187.5 C 0 291.054688 83.945312 375 187.5 375 C 291.054688 375 375 291.054688 375 187.5 C 375 83.945312 291.054688 0 187.5 0 Z M 187.5 0 " clip-rule="nonzero"/></clipPath><clipPath id="14645f45fc"><rect x="0" width="375" y="0" height="375"/></clipPath><clipPath id="cbfc696e6d"><rect x="0" width="273" y="0" height="375"/></clipPath></defs><g clip-path="url(#8357cd6686)"><g transform="matrix(1, 0, 0, 1, 0, 0)"><g clip-path="url(#14645f45fc)"><g clip-path="url(#0a47682c09)"><g clip-path="url(#aa9026eb29)"><rect x="-82.5" width="540" fill="#fff5ed" height="539.999987" y="-82.499998" fill-opacity="1"/></g></g></g></g></g><g transform="matrix(1, 0, 0, 1, 50, 0)"><g clip-path="url(#cbfc696e6d)"><g fill="#1322a5" fill-opacity="1"><g transform="translate(1.057397, 292.93932)"><g><path d="M 260.59375 -55.984375 C 262.757812 -55.984375 264.46875 -54.976562 265.71875 -52.96875 C 266.976562 -50.957031 267.609375 -48.195312 267.609375 -44.6875 C 267.609375 -38.15625 266.019531 -32.96875 262.84375 -29.125 C 254.8125 -19.414062 246.691406 -11.925781 238.484375 -6.65625 C 230.285156 -1.382812 220.582031 1.25 209.375 1.25 C 196.988281 1.25 186.863281 -2.382812 179 -9.65625 C 171.132812 -16.9375 163.769531 -28.28125 156.90625 -43.6875 C 151.882812 -54.726562 147.738281 -62.96875 144.46875 -68.40625 C 141.207031 -73.84375 137.988281 -77.691406 134.8125 -79.953125 C 131.632812 -82.210938 127.617188 -83.59375 122.765625 -84.09375 L 120 -65.515625 C 116.488281 -41.585938 109.671875 -24.347656 99.546875 -13.796875 C 89.421875 -3.253906 75.484375 2.015625 57.734375 2.015625 C 46.191406 2.015625 35.941406 -0.785156 26.984375 -6.390625 C 18.035156 -12.003906 11.800781 -19.160156 8.28125 -27.859375 C 7.113281 -30.878906 6.53125 -34.144531 6.53125 -37.65625 C 6.53125 -42.675781 7.703125 -47.023438 10.046875 -50.703125 C 12.390625 -54.390625 15.398438 -56.234375 19.078125 -56.234375 C 21.253906 -56.234375 23.09375 -55.6875 24.59375 -54.59375 C 26.101562 -53.507812 27.53125 -51.628906 28.875 -48.953125 C 34.0625 -39.242188 38.617188 -32.460938 42.546875 -28.609375 C 46.484375 -24.765625 51.378906 -22.84375 57.234375 -22.84375 C 63.929688 -22.84375 69.664062 -25.894531 74.4375 -32 C 79.207031 -38.113281 82.597656 -47.53125 84.609375 -60.25 L 88.125 -84.09375 L 84.09375 -84.09375 C 80.25 -84.09375 77.238281 -85.179688 75.0625 -87.359375 C 72.882812 -89.535156 71.796875 -92.550781 71.796875 -96.40625 C 71.796875 -100.75 72.925781 -104.21875 75.1875 -106.8125 C 77.445312 -109.414062 80.25 -110.71875 83.59375 -110.71875 L 91.890625 -110.71875 C 93.054688 -118.914062 93.890625 -124.601562 94.390625 -127.78125 L 102.171875 -184.265625 C 97.828125 -184.765625 93.726562 -185.015625 89.875 -185.015625 C 75.644531 -185.015625 64.847656 -182.546875 57.484375 -177.609375 C 50.117188 -172.671875 46.4375 -165.601562 46.4375 -156.40625 C 46.4375 -152.21875 46.894531 -148.828125 47.8125 -146.234375 C 48.738281 -143.640625 49.957031 -140.753906 51.46875 -137.578125 C 52.132812 -136.234375 52.46875 -134.726562 52.46875 -133.0625 C 52.46875 -129.375 50.75 -126.148438 47.3125 -123.390625 C 43.882812 -120.628906 40.082031 -119.25 35.90625 -119.25 C 30.539062 -119.25 26.601562 -121.59375 24.09375 -126.28125 C 19.070312 -135.144531 16.5625 -144.679688 16.5625 -154.890625 C 16.5625 -165.441406 19.445312 -175.066406 25.21875 -183.765625 C 31 -192.472656 39.742188 -199.460938 51.453125 -204.734375 C 63.171875 -210.003906 77.648438 -212.640625 94.890625 -212.640625 C 102.421875 -212.640625 109.320312 -212.21875 115.59375 -211.375 C 121.875 -210.539062 128.78125 -208.953125 136.3125 -206.609375 C 144.519531 -204.097656 148.625 -199.410156 148.625 -192.546875 C 148.625 -183.347656 144.691406 -178.75 136.828125 -178.75 L 127.03125 -111.21875 C 146.613281 -113.21875 162.554688 -121.625 174.859375 -136.4375 C 187.160156 -151.25 197.410156 -171.378906 205.609375 -196.828125 C 207.109375 -201.503906 209.65625 -205.097656 213.25 -207.609375 C 216.851562 -210.117188 221.421875 -211.375 226.953125 -211.375 C 231.628906 -211.375 235.265625 -210.328125 237.859375 -208.234375 C 240.460938 -206.148438 241.765625 -203.179688 241.765625 -199.328125 C 241.765625 -198.160156 241.425781 -196.238281 240.75 -193.5625 C 232.382812 -165.945312 220.414062 -144.019531 204.84375 -127.78125 C 189.28125 -111.550781 172.296875 -100.753906 153.890625 -95.390625 C 160.253906 -93.890625 165.484375 -91.628906 169.578125 -88.609375 C 173.679688 -85.597656 177.15625 -81.875 180 -77.4375 C 182.84375 -73.007812 186.109375 -66.863281 189.796875 -59 C 194.984375 -47.945312 199.832031 -40.117188 204.34375 -35.515625 C 208.863281 -30.921875 214.140625 -28.625 220.171875 -28.625 C 225.523438 -28.625 230.628906 -30.421875 235.484375 -34.015625 C 240.335938 -37.617188 246.445312 -43.769531 253.8125 -52.46875 C 255.820312 -54.8125 258.082031 -55.984375 260.59375 -55.984375 Z M 260.59375 -55.984375 "/></g></g></g></g></g></svg>